<svg width="24" height="24" viewBox="0 0 24 24" fill="none" xmlns="http://www.w3.org/2000/svg">
<path d="M0.241022 10.6048L10.8403 1.86965C11.037 1.70734 11.3125 1.67291 11.5436 1.78111C11.7748 1.88932 11.9224 2.12541 11.9224 2.38117V6.98484C17.0671 7.17174 20.6034 8.98665 22.4429 12.3853C24.0267 15.3167 24.0119 18.7891 23.9972 21.0861C23.9972 21.273 23.9972 21.45 23.9972 21.6172C23.9972 21.9173 23.7955 22.1829 23.5004 22.2616C23.4463 22.2763 23.3873 22.2812 23.3332 22.2812C23.0971 22.2812 22.8758 22.1583 22.7577 21.9468C19.1672 15.6167 16.2112 15.3118 11.9273 15.297V19.886C11.9273 20.1417 11.7797 20.3778 11.5436 20.486C11.3075 20.5942 11.037 20.5598 10.8354 20.3975L0.241022 11.6328C0.0885506 11.5049 1.71661e-05 11.318 1.71661e-05 11.1213C1.71661e-05 10.9245 0.0885506 10.7327 0.241022 10.6048ZM10.5944 18.4744V14.633C10.5944 14.456 10.6632 14.2887 10.7911 14.1658C10.9141 14.0428 11.0862 13.969 11.2584 13.969C13.934 13.969 15.985 14.0428 17.977 14.9724C19.6984 15.7741 21.1887 17.1365 22.6593 19.2761C22.6003 17.3234 22.3446 14.9921 21.2773 13.0198C19.5853 9.89165 16.3096 8.34234 11.2584 8.29807C10.8944 8.29315 10.5993 7.99804 10.5993 7.63408V3.78784L1.71164 11.1213L10.5944 18.4744Z" fill="white"/>
</svg>
