<svg width="26" height="31" viewBox="0 0 26 31" fill="none" xmlns="http://www.w3.org/2000/svg">
<path d="M15 4.51198V0H0V31H15V26.488C11.9272 26.488 8.9803 25.3303 6.80758 23.2696C4.63482 21.209 3.41418 18.4142 3.41418 15.5C3.41418 12.5858 4.63482 9.79091 6.80758 7.7303C8.9803 5.66965 11.9272 4.51198 15 4.51198Z" fill="white"/>
<path d="M15 4V27C17.9174 27 20.7153 25.7883 22.7782 23.6317C24.8411 21.475 26 18.55 26 15.5C26 12.45 24.8411 9.5249 22.7782 7.36828C20.7153 5.21161 17.9174 4 15 4Z" fill="white"/>
</svg>
